<?xml version="1.0" standalone="no"?>
<!DOCTYPE svg PUBLIC "-//W3C//DTD SVG 20010904//EN"
 "http://www.w3.org/TR/2001/REC-SVG-20010904/DTD/svg10.dtd">
<svg version="1.0" xmlns="http://www.w3.org/2000/svg"
 width="512.000000pt" height="512.000000pt" viewBox="0 0 512.000000 512.000000"
 preserveAspectRatio="xMidYMid meet">

<g transform="translate(0.000000,512.000000) scale(0.100000,-0.100000)"
fill="#000000" stroke="none">
<path d="M1986 4874 c-301 -128 -554 -241 -562 -251 -17 -23 -18 -64 -1 -86 6
-9 84 -48 172 -86 l160 -68 5 -229 c3 -126 8 -234 13 -241 4 -6 9 -67 11 -135
2 -92 9 -141 26 -193 36 -114 96 -219 171 -299 l68 -73 -57 -17 c-273 -85
-534 -316 -647 -570 -21 -49 -28 -56 -47 -51 -33 7 -333 33 -470 41 -116 6
-117 6 -142 -20 l-26 -25 0 -301 0 -300 -98 0 c-152 0 -142 28 -142 -384 l0
-337 25 -24 c22 -23 32 -25 120 -25 l95 0 0 -300 c0 -377 -18 -344 198 -353
332 -15 709 -70 997 -147 334 -89 554 -201 622 -317 33 -58 50 -72 83 -72 33
0 50 14 83 72 16 26 51 66 80 88 234 185 901 348 1539 376 216 9 198 -24 198
353 l0 300 95 0 c88 0 98 2 120 25 l25 24 0 334 c0 413 9 387 -141 387 l-99 0
0 300 0 301 -26 25 c-25 26 -26 26 -142 20 -137 -8 -437 -34 -470 -41 -19 -5
-26 2 -47 51 -113 255 -374 485 -647 570 l-57 17 64 68 c75 80 135 182 172
294 21 65 27 103 29 203 2 68 7 129 11 135 5 7 10 115 13 241 l5 230 90 37
c50 21 93 39 98 39 4 0 7 -48 7 -107 l-1 -108 -51 -35 c-94 -63 -88 -46 -88
-258 0 -170 2 -191 18 -205 32 -29 80 -21 138 23 29 22 56 40 60 40 4 0 31
-18 60 -40 62 -47 109 -53 140 -19 17 19 19 40 22 188 2 98 -1 178 -7 193 -6
17 -36 45 -75 70 l-66 43 0 180 c-1 137 -4 184 -15 198 -16 22 -1108 487
-1139 486 -12 -1 -268 -106 -570 -235z m1693 -790 c27 -22 31 -32 31 -76 0
-44 -2 -49 -17 -42 -31 13 -90 16 -97 5 -16 -25 -26 -8 -26 43 0 48 3 57 28
75 35 27 44 26 81 -5z m-1620 -284 c145 -39 285 -54 501 -54 223 0 352 14 518
59 51 14 98 25 103 25 13 0 11 -85 -5 -160 -28 -131 -113 -268 -218 -351 -354
-279 -871 -120 -1004 310 -8 25 -17 82 -21 125 l-6 79 29 -6 c16 -4 62 -16
103 -27z m249 -735 c162 -55 341 -55 506 1 69 23 81 24 138 14 280 -49 518
-217 652 -462 l36 -65 -72 -12 c-385 -66 -756 -195 -922 -321 -37 -27 -71 -50
-76 -50 -20 0 -263 247 -333 338 -111 144 -208 314 -266 460 l-20 51 77 25
c69 23 152 42 192 45 8 0 48 -10 88 -24z m-1253 -615 c623 -53 1185 -212 1366
-389 l59 -57 0 -852 0 -852 -57 37 c-264 169 -819 306 -1422 353 -74 5 -148
10 -163 10 l-28 0 0 255 c0 206 3 255 13 255 8 0 41 14 74 30 74 37 145 111
181 188 24 50 27 69 27 157 0 88 -3 107 -27 157 -36 77 -107 151 -181 188 -33
16 -66 30 -74 30 -10 0 -13 48 -13 250 l0 250 63 0 c34 0 116 -5 182 -10z
m3255 -240 c0 -202 -3 -250 -13 -250 -8 0 -41 -14 -74 -30 -74 -37 -145 -111
-181 -188 -24 -50 -27 -69 -27 -157 0 -88 3 -107 27 -157 36 -77 107 -151 181
-188 33 -16 66 -30 74 -30 10 0 13 -48 13 -254 l0 -253 -107 -7 c-649 -42
-1226 -181 -1510 -362 l-53 -34 0 852 0 852 59 57 c97 95 323 194 599 263 249
62 463 97 812 129 19 2 72 5 118 5 l82 2 0 -250z m-3485 -414 c169 -78 181
-312 21 -411 -46 -28 -57 -30 -163 -34 l-113 -3 0 236 0 236 103 0 c86 0 110
-4 152 -24z m3725 -212 l0 -236 -113 3 c-106 4 -117 6 -163 34 -160 99 -148
333 21 411 42 20 66 24 153 24 l102 0 0 -236z"/>
<path d="M1237 2080 c-20 -16 -27 -30 -27 -56 0 -43 26 -70 76 -78 374 -56
640 -119 845 -201 75 -30 149 -55 163 -55 49 0 79 54 60 105 -24 63 -481 208
-844 269 -241 40 -242 40 -273 16z"/>
<path d="M1236 1599 c-19 -15 -26 -30 -26 -55 0 -34 28 -74 53 -74 37 0 345
-54 464 -81 157 -35 365 -101 467 -148 82 -37 115 -39 144 -8 40 42 25 95 -36
126 -185 93 -525 185 -887 241 -159 24 -147 24 -179 -1z"/>
<path d="M1233 1118 c-29 -31 -30 -82 -3 -105 14 -12 82 -28 215 -50 305 -50
565 -120 747 -199 89 -40 106 -41 142 -13 28 22 34 56 15 91 -43 80 -652 253
-1029 293 -60 6 -67 5 -87 -17z"/>
<path d="M3790 2093 c-373 -60 -563 -103 -764 -173 -138 -48 -251 -102 -260
-125 -20 -53 12 -105 63 -105 16 0 60 14 97 30 203 92 499 165 908 226 50 8
76 35 76 78 0 25 -7 40 -26 55 -26 20 -42 23 -94 14z"/>
<path d="M3715 1604 c-337 -52 -661 -138 -867 -232 -91 -41 -115 -94 -64 -141
32 -30 59 -26 203 33 207 85 509 157 836 201 59 8 87 33 87 79 0 25 -7 40 -26
55 -30 24 -44 24 -169 5z"/>
<path d="M3780 1134 c-8 -1 -62 -10 -120 -19 -383 -60 -852 -204 -889 -274
-17 -32 -13 -66 12 -89 32 -30 56 -28 145 12 203 89 528 171 854 216 100 14
128 32 128 84 0 58 -53 87 -130 70z"/>
</g>
</svg>
